<svg width="77" height="77" viewBox="0 0 77 77" fill="none" xmlns="http://www.w3.org/2000/svg">
<path d="M77 38.5C77 17.2215 59.7809 0 38.5 0C17.2215 0 0 17.2191 0 38.5C0 59.5899 17.0752 77 38.5 77C59.8367 77 77 59.6869 77 38.5ZM38.5 4.51172C57.2413 4.51172 72.4883 19.7587 72.4883 38.5C72.4883 45.3557 70.4492 51.9453 66.6677 57.5268C51.4829 41.1929 25.5447 41.1636 10.3323 57.5268C6.5508 51.9453 4.51172 45.3557 4.51172 38.5C4.51172 19.7587 19.7587 4.51172 38.5 4.51172ZM13.1463 61.1338C26.6473 45.9902 50.3562 45.9937 63.8532 61.1338C50.3068 76.2892 26.6984 76.2939 13.1463 61.1338Z" fill="#303650"/>
<path d="M38.5 40.7559C45.9631 40.7559 52.0352 34.6838 52.0352 27.2207V22.709C52.0352 15.2458 45.9631 9.17383 38.5 9.17383C31.0369 9.17383 24.9648 15.2458 24.9648 22.709V27.2207C24.9648 34.6838 31.0369 40.7559 38.5 40.7559ZM29.4766 22.709C29.4766 17.7332 33.5242 13.6855 38.5 13.6855C43.4758 13.6855 47.5234 17.7332 47.5234 22.709V27.2207C47.5234 32.1965 43.4758 36.2441 38.5 36.2441C33.5242 36.2441 29.4766 32.1965 29.4766 27.2207V22.709Z" fill="#303650"/>
</svg>
